<?xml version="1.0" standalone="no"?><!DOCTYPE svg PUBLIC "-//W3C//DTD SVG 1.1//EN"
        "http://www.w3.org/Graphics/SVG/1.1/DTD/svg11.dtd">
<svg t="1702739178691" class="icon" viewBox="0 0 1024 1024" version="1.1"
     xmlns="http://www.w3.org/2000/svg" p-id="10127" width="200" height="200">
    <path d="M687.616 316.373333a188.373333 188.373333 0 1 1-376.746667 0 188.373333 188.373333 0 0 1 376.746667 0zM152.234667 896A24.234667 24.234667 0 0 1 128 871.765333c0-90.410667 0-135.637333 18.261333-170.154666a164.608 164.608 0 0 1 73.173334-70.570667c35.84-17.621333 82.688-17.621333 176.469333-17.621333h217.685333c93.781333 0 140.672 0 176.469334 17.621333a164.565333 164.565333 0 0 1 73.216 70.570667c18.218667 34.56 18.218667 79.744 18.218666 170.154666a24.234667 24.234667 0 0 1-24.192 24.234667H152.234667z"
          fill="#8288A8" p-id="10128"></path>
</svg>
