<?xml version="1.0" standalone="no"?><!DOCTYPE svg PUBLIC "-//W3C//DTD SVG 1.1//EN"
        "http://www.w3.org/Graphics/SVG/1.1/DTD/svg11.dtd">
<svg t="1702736358750" class="icon" viewBox="0 0 1024 1024" version="1.1"
     xmlns="http://www.w3.org/2000/svg" p-id="15184" width="200" height="200">
    <path d="M512 28.444444a227.612444 227.612444 0 0 1 221.980444 177.265778 28.444444 28.444444 0 0 1-55.523555 12.515556A170.723556 170.723556 0 1 0 449.422222 414.833778c12.686222 1.137778 25.429333 3.072 38.115556 5.688889a227.555556 227.555556 0 1 1 281.258666 281.884444 27.306667 27.306667 0 0 1-12.288 3.754667l-5.12 0.455111c-13.425778 2.730667-27.306667 4.266667-41.528888 4.437333-171.406222 24.291556-263.281778 116.394667-318.407112 284.558222a27.534222 27.534222 0 0 1-34.133333 17.066667 25.884444 25.884444 0 0 1-17.92-32.654222c49.493333-150.926222 129.706667-249.059556 259.640889-295.822222A227.214222 227.214222 0 0 1 478.663111 483.555556l0.170667-6.826667a314.538667 314.538667 0 0 0-24.007111-4.096 27.534222 27.534222 0 0 1-15.018667-0.796445l-3.072-1.137777a313.002667 313.002667 0 0 0-335.473778 328.135111 28.444444 28.444444 0 1 1-56.775111 2.844444A369.834667 369.834667 0 0 1 352.369778 418.133333 227.555556 227.555556 0 0 1 512 28.444444zM938.666667 910.222222a28.444444 28.444444 0 0 1 5.12 56.433778L938.666667 967.111111h-227.555556a28.444444 28.444444 0 0 1-5.12-56.433778L711.111111 910.222222h227.555556z m0-113.777778a28.444444 28.444444 0 0 1 5.12 56.433778L938.666667 853.333333h-227.555556a28.444444 28.444444 0 0 1-5.12-56.433777L711.111111 796.444444h227.555556z m-232.448-483.555555a170.666667 170.666667 0 1 0 0 341.333333 170.666667 170.666667 0 0 0 0-341.333333z"
          fill="#33353B" p-id="15185"></path>
</svg>
